<?xml version="1.0" encoding="utf-8"?>
<!-- Generator: Adobe Illustrator 25.1.0, SVG Export Plug-In . SVG Version: 6.00 Build 0)  -->
<svg version="1.1" id="OBJECTS" xmlns="http://www.w3.org/2000/svg" xmlns:xlink="http://www.w3.org/1999/xlink" x="0px" y="0px"
	 viewBox="0 0 25.6 32.2" style="enable-background:new 0 0 25.6 32.2;" xml:space="preserve">
<style type="text/css">
	.st0{fill:#13345A;stroke:#13345A;stroke-width:4;stroke-miterlimit:10;}
	.st1{fill:#04D9D4;stroke:#13345A;stroke-width:3;stroke-linecap:round;stroke-linejoin:round;stroke-miterlimit:10;}
	.st2{fill:#13345A;}
</style>
<path class="st0" d="M7.7,2.4c-1-0.1-1.5,0.5-1.8,1.1C2.3,9,0.1,15.2,3.9,21.2c3.4,5.1,9,8.3,15.2,8.6c0.7,0,1.5-0.2,1.8-1
	c2.6-5.4,4.1-12,1.2-17.6S13.8,2.7,7.7,2.4"/>
<path class="st1" d="M7.7,2.4c-1-0.1-1.5,0.5-1.8,1.1C2.3,9,0.1,15.2,3.9,21.2c3.4,5.1,9,8.3,15.2,8.6c0.7,0,1.5-0.2,1.8-1
	c2.6-5.4,4.1-12,1.2-17.6S13.8,2.7,7.7,2.4"/>
<path class="st2" d="M20.9,28.6c-1.4-2.9-2.8-5.8-4.2-8.7c0,0,0-0.1,0.1-0.1c0.7-1.4,1.4-2.8,1.9-4.2c0.6-1.5-1.9-2.2-2.4-0.7
	c-0.3,0.7-0.6,1.4-0.9,2.2c-0.8-1.8-1.7-3.5-2.5-5.3c-0.7-1.5-2.8-0.2-2.2,1.3c0.5,1,0.9,1.9,1.4,2.9l-3.4-1.2C7,14,6.4,16.5,7.9,17
	l5.6,2c1.7,3.6,3.4,7.2,5.2,10.8C19.4,31.3,21.6,30,20.9,28.6z"/>
</svg>
