<?xml version="1.0" encoding="utf-8"?>
<!-- Generator: Adobe Illustrator 25.1.0, SVG Export Plug-In . SVG Version: 6.00 Build 0)  -->
<svg version="1.1" id="OBJECTS" xmlns="http://www.w3.org/2000/svg" xmlns:xlink="http://www.w3.org/1999/xlink" x="0px" y="0px"
	 viewBox="0 0 342.9 32.2" style="enable-background:new 0 0 342.9 32.2;" xml:space="preserve">
<style type="text/css">
	.st0{fill:#13345A;stroke:#13345A;stroke-width:4;stroke-miterlimit:10;}
	.st1{fill:#04D9D4;stroke:#13345A;stroke-width:3;stroke-linecap:round;stroke-linejoin:round;stroke-miterlimit:10;}
	.st2{fill:#13345A;}
</style>
<path class="st0" d="M7.7,2.4c-1-0.1-1.5,0.5-1.8,1.1C2.3,9,0.1,15.2,3.9,21.2c3.4,5.1,9,8.3,15.2,8.6c0.7,0,1.5-0.2,1.8-1
	c2.6-5.4,4.1-12,1.2-17.6S13.8,2.7,7.7,2.4"/>
<path class="st1" d="M7.7,2.4c-1-0.1-1.5,0.5-1.8,1.1C2.3,9,0.1,15.2,3.9,21.2c3.4,5.1,9,8.3,15.2,8.6c0.7,0,1.5-0.2,1.8-1
	c2.6-5.4,4.1-12,1.2-17.6S13.8,2.7,7.7,2.4"/>
<path class="st2" d="M20.9,28.6c-1.4-2.9-2.8-5.8-4.2-8.7c0,0,0-0.1,0.1-0.1c0.7-1.4,1.4-2.8,1.9-4.2c0.6-1.5-1.9-2.2-2.4-0.7
	c-0.3,0.7-0.6,1.4-0.9,2.2c-0.8-1.8-1.7-3.5-2.5-5.3c-0.7-1.5-2.8-0.2-2.2,1.3c0.5,1,0.9,1.9,1.4,2.9l-3.4-1.2C7,14,6.4,16.5,7.9,17
	l5.6,2c1.7,3.6,3.4,7.2,5.2,10.8C19.4,31.3,21.6,30,20.9,28.6z"/>
<g>
	<g>
		<path class="st2" d="M40.9,24.9V1.2h12.2v3.5h-8V11h7.7v3.5h-7.7v10.5H40.9z"/>
		<path class="st2" d="M62.7,25.3c-2.3,0-4.2-0.5-5.4-1.5c-1.3-1-1.9-2.4-1.9-4.2c0-1.8,0.7-3.2,2-4.2c1.3-1,3.3-1.4,5.8-1.4h3.3
			v3.2h-3.2c-1.3,0-2.3,0.2-2.9,0.6c-0.6,0.4-1,1-1,1.8c0,0.8,0.3,1.3,0.8,1.8c0.6,0.4,1.4,0.6,2.4,0.6c0.6,0,1.1-0.1,1.6-0.2
			s0.9-0.4,1.3-0.7l-1,2.1V14c0-0.8-0.1-1.5-0.2-1.9c-0.1-0.4-0.4-0.7-0.8-0.8c-0.4-0.1-1-0.2-1.8-0.2c-0.6,0-1.1,0-1.6,0.1
			c-0.5,0-1.1,0.1-1.7,0.3c-0.6,0.1-1.3,0.3-2.1,0.6V8.6c0.8-0.3,1.6-0.5,2.6-0.6c1-0.2,2-0.2,3.2-0.2c1.6,0,2.9,0.2,3.8,0.6
			c0.9,0.4,1.6,1,2,1.9c0.4,0.9,0.6,2.1,0.6,3.7v10.3c-0.7,0.3-1.6,0.6-2.6,0.8C64.8,25.2,63.7,25.3,62.7,25.3z"/>
		<path class="st2" d="M71.8,24.9V8.7c0.6-0.3,1.3-0.6,2-0.7c0.7-0.2,1.5-0.2,2.4-0.2c0.7,0,1.3,0.1,1.7,0.2
			c0.4,0.1,0.9,0.4,1.3,0.8c0.6-0.4,1.1-0.6,1.6-0.8c0.5-0.1,1.1-0.2,1.8-0.2c1,0,1.8,0.2,2.4,0.5c0.6,0.3,1,0.8,1.2,1.5
			c0.2,0.7,0.4,1.7,0.4,2.9v12.4h-3.7V12.5c0-0.3,0-0.6-0.1-0.8c-0.1-0.2-0.2-0.3-0.3-0.4c-0.1-0.1-0.3-0.1-0.6-0.1
			c-0.2,0-0.4,0-0.6,0.1c-0.2,0.1-0.3,0.2-0.5,0.3v13.4h-3.4V12.1c0-0.2,0-0.4-0.1-0.5c-0.1-0.1-0.2-0.2-0.3-0.3
			c-0.1-0.1-0.3-0.1-0.5-0.1c-0.4,0-0.8,0.1-1.1,0.4v13.4H71.8z"/>
		<path class="st2" d="M94.5,24.9V11.5h-5.4V8h9.4v16.9H94.5z M96,5.8c-0.9,0-1.6-0.2-2.1-0.7c-0.5-0.5-0.8-1.2-0.8-2
			c0-0.9,0.3-1.5,0.8-2c0.5-0.5,1.2-0.7,2.1-0.7c0.9,0,1.6,0.2,2.1,0.7c0.5,0.5,0.8,1.1,0.8,2c0,0.8-0.3,1.5-0.8,2
			C97.6,5.5,96.9,5.8,96,5.8z"/>
		<path class="st2" d="M112.2,25.3c-2,0-3.4-0.4-4.2-1.2c-0.8-0.8-1.3-2.1-1.3-4V4.7H102V1.2h8.7v17.9c0,1,0.2,1.7,0.5,2.1
			s1,0.6,1.9,0.6c0.6,0,1.1,0,1.6-0.1c0.5-0.1,1-0.2,1.4-0.4v3.5c-0.6,0.2-1.3,0.3-1.9,0.4S112.9,25.3,112.2,25.3z"/>
		<path class="st2" d="M118.8,28.6c1.1,0,2-0.2,2.7-0.5c0.7-0.3,1.2-0.8,1.6-1.5s0.6-1.6,0.7-2.7l0.2,1.9L117.6,8h4.2l3.6,11.5h0.1
			L128.8,8h4.2l-5.9,18.6c-0.4,1.2-0.9,2.2-1.7,3c-0.7,0.8-1.6,1.4-2.7,1.8c-1.1,0.4-2.4,0.6-3.9,0.6V28.6z"/>
		<path class="st2" d="M149.2,24.9V4.8h-4.9V1.2h13.9v3.6h-4.9v20.1H149.2z"/>
		<path class="st2" d="M160.2,9.5c1.1-0.4,2.4-0.7,3.7-0.9c1.3-0.3,2.6-0.5,3.9-0.6c1.3-0.2,2.5-0.2,3.6-0.2v3.5
			c-0.9,0-1.9,0.1-2.9,0.2c-1,0.1-1.9,0.3-2.8,0.5c-0.9,0.2-1.7,0.4-2.4,0.7l1-1.9v14.3h-4.1V9.5z"/>
		<path class="st2" d="M181.1,25.3c-2.7,0-4.6-0.7-6-2s-2-3.4-2-6.1v-1.3c0-2.8,0.5-4.8,1.6-6.2c1.1-1.3,2.8-2,5.1-2s4,0.7,5.1,2
			c1.1,1.3,1.6,3.4,1.6,6.2v2.4h-11.4v-3.2h8.3l-0.7,1V16c0-1.8-0.2-3-0.6-3.8s-1.1-1.1-2.1-1.1c-1,0-1.7,0.4-2.2,1.1
			s-0.6,2-0.6,3.8v1c0,1.3,0.1,2.3,0.4,3c0.2,0.7,0.7,1.2,1.3,1.4c0.6,0.3,1.5,0.4,2.7,0.4c0.6,0,1.3,0,1.9-0.1
			c0.6-0.1,1.4-0.2,2.3-0.4v3.4c-0.7,0.2-1.5,0.3-2.2,0.4S181.9,25.3,181.1,25.3z"/>
		<path class="st2" d="M197.4,25.3c-2.7,0-4.6-0.7-6-2s-2-3.4-2-6.1v-1.3c0-2.8,0.5-4.8,1.6-6.2c1.1-1.3,2.8-2,5.1-2s4,0.7,5.1,2
			c1.1,1.3,1.6,3.4,1.6,6.2v2.4h-11.4v-3.2h8.3l-0.7,1V16c0-1.8-0.2-3-0.6-3.8s-1.1-1.1-2.1-1.1c-1,0-1.7,0.4-2.2,1.1
			s-0.6,2-0.6,3.8v1c0,1.3,0.1,2.3,0.4,3c0.2,0.7,0.7,1.2,1.3,1.4c0.6,0.3,1.5,0.4,2.7,0.4c0.6,0,1.3,0,1.9-0.1
			c0.6-0.1,1.4-0.2,2.3-0.4v3.4c-0.7,0.2-1.5,0.3-2.2,0.4S198.2,25.3,197.4,25.3z"/>
		<path class="st2" d="M218.6,24.9l-1.8-23.7h4.1l0.6,17.3h0.1l1.6-14h3.2l1.6,14h0.1l0.6-17.3h4.1L231,24.9h-5l-1.1-11.7h-0.1
			l-1.1,11.7H218.6z"/>
		<path class="st2" d="M241.1,25.3c-2.4,0-4.1-0.7-5.2-2s-1.7-3.4-1.7-6.2v-1.3c0-2.8,0.6-4.8,1.7-6.2c1.1-1.3,2.8-2,5.2-2
			c2.4,0,4.1,0.7,5.2,2c1.1,1.3,1.7,3.4,1.7,6.2v1.3c0,2.8-0.6,4.9-1.7,6.2S243.4,25.3,241.1,25.3z M241.1,21.7c1,0,1.7-0.4,2.2-1.1
			c0.4-0.7,0.7-2,0.7-3.8v-0.7c0-1.8-0.2-3-0.7-3.8c-0.4-0.7-1.2-1.1-2.2-1.1c-1,0-1.7,0.4-2.2,1.1c-0.4,0.7-0.7,2-0.7,3.8v0.7
			c0,1.8,0.2,3,0.7,3.8S240,21.7,241.1,21.7z"/>
		<path class="st2" d="M250.6,9.5c1.1-0.4,2.4-0.7,3.7-0.9c1.3-0.3,2.6-0.5,3.9-0.6c1.3-0.2,2.5-0.2,3.6-0.2v3.5
			c-0.9,0-1.9,0.1-2.9,0.2c-1,0.1-1.9,0.3-2.8,0.5c-0.9,0.2-1.7,0.4-2.4,0.7l1-1.9v14.3h-4.1V9.5z"/>
		<path class="st2" d="M264.6,24.9V1.2h4V15h0.1L274,8h4.6l-6.1,8.1l6.2,8.8h-4.6l-5.3-7.5h-0.1v7.5H264.6z"/>
		<path class="st2" d="M286.7,25.3c-1,0-1.9-0.1-2.8-0.2c-0.9-0.1-1.7-0.4-2.6-0.6v-3.5c1,0.3,1.9,0.5,2.7,0.7
			c0.8,0.1,1.7,0.2,2.5,0.2c1.1,0,1.9-0.1,2.3-0.4c0.5-0.3,0.7-0.7,0.7-1.2c0-0.3-0.1-0.6-0.3-0.8s-0.5-0.5-1-0.7
			c-0.4-0.2-1-0.4-1.8-0.6c-1.3-0.3-2.4-0.8-3.3-1.3c-0.8-0.5-1.4-1.1-1.8-1.8c-0.4-0.7-0.6-1.5-0.6-2.5c0-1.7,0.6-2.9,1.7-3.7
			c1.1-0.8,2.9-1.2,5.3-1.2c0.8,0,1.7,0.1,2.5,0.2c0.8,0.1,1.8,0.3,2.9,0.6v5.3h-4V9.2l1.7,2.2c-0.7-0.1-1.3-0.1-1.7-0.2
			c-0.4,0-0.8,0-1.2,0c-1.1,0-1.9,0.1-2.4,0.4c-0.5,0.2-0.8,0.6-0.8,1.2c0,0.3,0.1,0.6,0.4,0.9c0.2,0.3,0.6,0.5,1.1,0.8
			c0.5,0.2,1.1,0.5,2,0.7c1.3,0.4,2.3,0.8,3.1,1.3c0.8,0.5,1.3,1,1.7,1.7s0.5,1.4,0.5,2.3c0,1.7-0.6,2.9-1.7,3.7
			S289.1,25.3,286.7,25.3z"/>
		<path class="st2" d="M297,24.9V1.2h4v23.7H297z M306,14.1c0-0.8-0.1-1.4-0.2-1.8c-0.2-0.4-0.4-0.7-0.8-0.9
			c-0.4-0.2-0.9-0.3-1.6-0.3c-0.4,0-0.7,0-1,0.1c-0.3,0.1-0.7,0.1-1,0.3c-0.4,0.1-0.8,0.3-1.3,0.6L299,8.8c0.8-0.4,1.5-0.7,2.2-0.8
			c0.7-0.2,1.6-0.2,2.6-0.2c1.6,0,2.8,0.2,3.7,0.6c0.9,0.4,1.5,1,1.9,1.9c0.4,0.9,0.6,2.1,0.6,3.7v11.1h-4V14.1z"/>
		<path class="st2" d="M319.8,25.3c-2.4,0-4.1-0.7-5.2-2s-1.7-3.4-1.7-6.2v-1.3c0-2.8,0.6-4.8,1.7-6.2c1.1-1.3,2.8-2,5.2-2
			c2.4,0,4.1,0.7,5.2,2c1.1,1.3,1.7,3.4,1.7,6.2v1.3c0,2.8-0.6,4.9-1.7,6.2S322.1,25.3,319.8,25.3z M319.8,21.7c1,0,1.7-0.4,2.2-1.1
			c0.4-0.7,0.7-2,0.7-3.8v-0.7c0-1.8-0.2-3-0.7-3.8c-0.4-0.7-1.2-1.1-2.2-1.1c-1,0-1.7,0.4-2.2,1.1c-0.4,0.7-0.7,2-0.7,3.8v0.7
			c0,1.8,0.2,3,0.7,3.8S318.7,21.7,319.8,21.7z"/>
		<path class="st2" d="M329.8,8.7c1.6-0.7,3.4-1,5.6-1c1.8,0,3.3,0.3,4.4,0.8c1.1,0.6,1.9,1.4,2.3,2.7c0.5,1.2,0.7,2.9,0.7,5
			c0,2.2-0.2,4-0.7,5.3c-0.5,1.3-1.3,2.3-2.4,2.9s-2.5,0.9-4.3,0.9c-0.7,0-1.3,0-1.9-0.1c-0.6-0.1-1.2-0.2-1.8-0.3l1-3.5
			c0.6,0.2,1.2,0.4,1.7,0.5s0.9,0.1,1.3,0.1c0.8,0,1.4-0.2,1.9-0.5s0.8-0.9,1-1.7c0.2-0.8,0.3-1.9,0.3-3.4c0-1.3-0.1-2.3-0.3-3
			c-0.2-0.7-0.5-1.3-0.9-1.6c-0.4-0.3-1-0.5-1.8-0.5c-0.4,0-0.9,0.1-1.4,0.2s-1,0.3-1.7,0.5l0.9-2.1v22h-4V8.7z"/>
	</g>
</g>
</svg>
