<svg xmlns="http://www.w3.org/2000/svg" viewBox="0 0 310.49 692.93"><defs><style>.cls-1{fill:#382713;}.cls-2{fill:#221809;}.cls-3{fill:#e3acb0;}.cls-4{fill:#273859;}.cls-5{fill:#c49a6c;}.cls-6{fill:#8f714f;}.cls-7{fill:#d5a3a6;}.cls-8{fill:#d3d7e8;}.cls-9{fill:#b9bdcc;}.cls-10{fill:#7dbcc2;}</style></defs><g id="Calque_2" data-name="Calque 2"><g id="Ñëîé_1" data-name="Ñëîé 1"><path class="cls-1" d="M257.25,68.88c-7.6-8.7-38.4-53.2-42.7-60.6A34.94,34.94,0,0,0,180.75,2c-7.7,2.8-20.3,8.4-25.3,27-5.7,20.9.5,65.7,28.6,74.9C214.65,104.48,264.45,77,257.25,68.88Z"/><path class="cls-2" d="M271.45,67.58c-18.1-4.7-48.1-50-48.1-50a46.53,46.53,0,0,0-8.8-9.3c4.2,7.4,34.6,60.5,34.9,61.3,3.6,10.8-34.8,34.9-65.4,34.3a34.47,34.47,0,0,0,4.6,1.2C221.35,110.78,245.45,102.28,271.45,67.58Z"/><path class="cls-3" d="M208.55,637.78l1,37.7s-6.7,7.2,1.3,12.8,25.4,1.4,29.2-.4c7.9-3.6-17.1-10.8-17.1-10.8l-1.5-46.7Z"/><path class="cls-4" d="M206.25,678.58c-1.8,8.5.5,11.1,2,12.7,2.2,2.2,23.3,1.9,44.1.8,11.6-.6-8.3-12.5-28.8-18.4C220.25,679.78,210.15,680.58,206.25,678.58Z"/><path class="cls-3" d="M148.35,635.28l-.8,37.7s6.8,7.2-1.2,12.8-25.4,1.5-29.2-.2c-8-3.6,17-10.9,17-10.9l1.2-46.7Z"/><path class="cls-5" d="M176.45,290.78c-34-77.3-52-44.5-59.4-36.4,0,0-10.4,17.8-13.4,28.2-3.4,11.9-10.9,43.1-8.9,73.5,3.7,56.6,18.5,148.5,35.4,304.9,1.9.5,20.1,0,22.1-.1C155.45,642.88,188.55,345.78,176.45,290.78Z"/><path class="cls-5" d="M208.15,289.78c-33.5-42.9-92.9-39-56.4,46.5,48.5,118.8,53,325.5,53,325.5s8.6.9,15.4,1.3c21.1-195.5-2.9-292.6-2.9-292.6C216.05,365.28,208.15,289.78,208.15,289.78Z"/><path class="cls-6" d="M222,258.08c-16.4-1.1-40.7,3.8-39.6,8.9,0,0,58.8,200.5,37.6,396,3.5.2,6.5.2,7.5-.2C271.45,455.08,224.65,285.28,222,258.08Z"/><path class="cls-7" d="M179.35,63.28l-12.2,50.8s3.9,29,15.5,29.1c17.2.2,8.6-79,8.6-79Z"/><path class="cls-4" d="M151,676.08c1.9,8.5-.4,11.1-1.9,12.7-2.2,2.2-23.3,2-44.1,1.1-11.6-.5,8.2-12.6,28.7-18.6C136.85,677.38,147.05,678.18,151,676.08Z"/><path class="cls-3" d="M198.35,10.08c-16.5-3.2-32.1,8.9-36,26.4-3.5,15.7-4.1,36.2,13.3,44.9,26.7,13.4,35.3-36.2,33.4-49.4C207.65,22.58,212.05,12.68,198.35,10.08Z"/><path class="cls-1" d="M158.55,42.48s23.1-31.3,47.7,8.4c7.4,14.3-1.5,34.6-1.5,34.6s26.3-31.5,18.9-59.9c-4.4-17.2-24.6-31.9-46.5-22.8C159.25,10.18,158.75,31,158.55,42.48Z"/><path class="cls-3" d="M226.45,112.58s115.2-44.8-3.9-71.4c-7.4-1.7-11.3-18.8-8.2-22.5,7.4-8.4,6.3,6.7,16.6,11s99.1-3.2,75.6,60.5c-16.3,40.4-65.9,73.9-73.8,55S223.25,115.58,226.45,112.58Z"/><path class="cls-8" d="M254.65,96.28s13.7,32.1,7.9,49c-15.7,14.7-30.3,27.1-39.6,29.2-2.5.6-13.3-62.6-9.4-63.3C241.05,105.88,254.65,96.28,254.65,96.28Z"/><path class="cls-8" d="M211.15,184.88c8-38.4-5.7-70.1-8.9-78.1-4.8-.9-8.9-1.3-8.9-1.1-.6,6.2-11.7,36.6-24.5,2.5-2-5.4-15.7-1.9-19.9-.7a58.75,58.75,0,0,0-31.2,21.1c-10.9,49.2,15.7,93.2-5.8,129.6-3.3,5.5,28.9,16.5,59.4,18.6a152.11,152.11,0,0,0,27.3-.7C198,259,203.15,223.18,211.15,184.88Z"/><path class="cls-9" d="M224.75,263.28c-3.9-15.8-11.7-56.5-3.6-74.6,7.6-18.2,9.3-29,6.3-41.8-2.4-9.9-3.1-18.5-10.8-35.3-.9-1.9-8.2-3.7-14.4-4.8,3.2,8,14.2,39.4,6.2,77.8s-10.5,74.4-9.8,91.3C214.75,273.88,226.15,269.08,224.75,263.28Z"/><rect class="cls-10" x="-0.95" y="339.98" width="89.4" height="9.4" transform="translate(-111.07 33.63) rotate(-19.23)"/><rect class="cls-10" x="14.05" y="359.68" width="5" height="19.3" transform="translate(-120.7 26.05) rotate(-19.23)"/><rect class="cls-10" x="20.93" y="353.69" width="5" height="19.3" transform="translate(-118.34 27.98) rotate(-19.23)"/><rect class="cls-10" x="29.03" y="350.87" width="5" height="19.3" transform="translate(-116.96 30.49) rotate(-19.23)"/><rect class="cls-10" x="36.55" y="345.29" width="5" height="19.3" transform="translate(-114.71 32.66) rotate(-19.23)"/><path class="cls-10" d="M95.55,302.18a23.09,23.09,0,1,0,29.4,14.2A23.09,23.09,0,0,0,95.55,302.18Zm13.4,38.3a17.52,17.52,0,1,1,10.8-22.3A17.44,17.44,0,0,1,109,340.48Z"/><path class="cls-3" d="M93.55,313s13.4,8.3,18.6,2.2c4.9-5.8,1.8-11.3-13.8-17-8.6-16.2-41.3-69.6,0-102.7,39-31.2,37.5-22.2,39-27.5,6.5-23.1,1.8-37.7-14.4-39.6C99.15,125.58-27.85,215.28,93.55,313Z"/><path class="cls-8" d="M106.15,199.68s8.4-13.2,35.6-17.3c15.8-39-10.4-65.1-10.4-65.1s-41.6,16.6-43.1,25C85,164.08,96.75,192.78,106.15,199.68Z"/></g></g></svg>